<?xml version="1.0" encoding="iso-8859-1"?>
<!-- Uploaded to: SVG Repo, www.svgrepo.com, Generator: SVG Repo Mixer Tools -->
<svg height="800px" width="800px" version="1.1" id="Layer_1" xmlns="http://www.w3.org/2000/svg" xmlns:xlink="http://www.w3.org/1999/xlink" 
	 viewBox="0 0 512 512" xml:space="preserve">
<polygon style="fill:#1FCFC1;" points="381.096,10.199 59.579,10.199 59.579,456.81 452.422,456.81 452.422,81.525 "/>
<polygon style="fill:#847C7C;" points="426.111,428.802 85.89,428.802 85.89,329.145 15.496,329.145 15.496,501.801 
	496.505,501.801 496.505,329.145 426.111,329.145 "/>
<g>
	<path style="fill:#4D4D4D;" d="M496.505,318.945h-33.884V81.525c0-2.705-1.075-5.298-2.987-7.212L388.308,2.987
		C386.394,1.075,383.801,0,381.095,0H59.579C53.946,0,49.38,4.567,49.38,10.199v308.746H15.496c-5.633,0-10.199,4.567-10.199,10.199
		v172.656c0,5.632,4.566,10.199,10.199,10.199h481.008c5.632,0,10.199-4.567,10.199-10.199V329.145
		C506.704,323.512,502.137,318.945,496.505,318.945z M69.778,20.398h307.093l65.351,65.351v233.196h-16.112
		c-5.632,0-10.199,4.567-10.199,10.199v89.459H96.088v-89.459c0-5.632-4.566-10.199-10.199-10.199H69.778V20.398z M486.306,491.602
		H25.695V339.344H75.69v89.459c0,5.632,4.566,10.199,10.199,10.199h340.222c5.632,0,10.199-4.567,10.199-10.199v-89.459h49.995
		V491.602z"/>
	<path style="fill:#4D4D4D;" d="M377.371,135.618h5.92c5.632,0,10.199-4.567,10.199-10.199s-4.567-10.199-10.199-10.199h-5.92
		c-5.632,0-10.199,4.567-10.199,10.199S371.739,135.618,377.371,135.618z"/>
	<path style="fill:#4D4D4D;" d="M128.71,135.618h207.864c5.632,0,10.199-4.567,10.199-10.199s-4.567-10.199-10.199-10.199H128.71
		c-5.633,0-10.199,4.567-10.199,10.199S123.077,135.618,128.71,135.618z"/>
	<path style="fill:#4D4D4D;" d="M128.71,197.068H383.29c5.632,0,10.199-4.567,10.199-10.199s-4.567-10.199-10.199-10.199H128.71
		c-5.633,0-10.199,4.567-10.199,10.199S123.077,197.068,128.71,197.068z"/>
	<path style="fill:#4D4D4D;" d="M128.71,258.518H383.29c5.632,0,10.199-4.567,10.199-10.199s-4.567-10.199-10.199-10.199H128.71
		c-5.633,0-10.199,4.567-10.199,10.199S123.077,258.518,128.71,258.518z"/>
</g>
</svg>