<?xml version="1.0" encoding="iso-8859-1"?>
<svg height="800px" width="800px" version="1.1" id="Layer_1" xmlns="http://www.w3.org/2000/svg" xmlns:xlink="http://www.w3.org/1999/xlink" 
	 viewBox="0 0 512 512" xml:space="preserve">
<circle style="fill:#1FCFC1;" cx="256" cy="256" r="245.801"/>
<circle style="fill:#F2F2F2;" cx="256" cy="256" r="190.725"/>
<g>
	<circle style="fill:#1FCFC1;" cx="256" cy="143.809" r="31.618"/>
	<path style="fill:#1FCFC1;" d="M273.849,210.703h-35.697c-7.605,0-13.769,6.164-13.769,13.769V382.98
		c0,7.605,6.164,13.769,13.769,13.769h35.697c7.605,0,13.769-6.164,13.769-13.769V224.472
		C287.618,216.868,281.453,210.703,273.849,210.703z"/>
</g>
<g>
	<path style="fill:#4D4D4D;" d="M256,512c-68.38,0-132.667-26.628-181.02-74.98S0,324.38,0,256S26.628,123.333,74.98,74.98
		S187.62,0,256,0s132.667,26.628,181.02,74.98S512,187.62,512,256s-26.628,132.667-74.98,181.02S324.38,512,256,512z M256,20.398
		C126.089,20.398,20.398,126.089,20.398,256S126.089,491.602,256,491.602S491.602,385.911,491.602,256S385.911,20.398,256,20.398z"
		/>
	<path style="fill:#4D4D4D;" d="M256,456.924C145.21,456.924,55.076,366.79,55.076,256S145.21,55.076,256,55.076
		S456.924,145.21,456.924,256S366.79,456.924,256,456.924z M256,75.474c-99.542,0-180.526,80.984-180.526,180.526
		S156.458,436.526,256,436.526S436.526,355.542,436.526,256S355.542,75.474,256,75.474z"/>
	<path style="fill:#4D4D4D;" d="M256,185.626c-23.057,0-41.817-18.759-41.817-41.817s18.759-41.817,41.817-41.817
		s41.817,18.759,41.817,41.817S279.057,185.626,256,185.626z M256,122.39c-11.811,0-21.418,9.608-21.418,21.418
		c0,11.811,9.608,21.418,21.418,21.418c11.811,0,21.418-9.608,21.418-21.418C277.418,131.998,267.811,122.39,256,122.39z"/>
	<path style="fill:#4D4D4D;" d="M273.849,406.948h-35.697c-13.216,0-23.968-10.752-23.968-23.968V224.472
		c0-13.216,10.752-23.968,23.968-23.968h35.697c13.216,0,23.968,10.752,23.968,23.968V382.98
		C297.817,396.196,287.065,406.948,273.849,406.948z M238.151,220.903c-1.968,0-3.57,1.601-3.57,3.57V382.98
		c0,1.968,1.601,3.57,3.57,3.57h35.697c1.968,0,3.57-1.601,3.57-3.57V224.472c0-1.968-1.601-3.57-3.57-3.57H238.151z"/>
	<path style="fill:#4D4D4D;" d="M369.227,379.427c-2.61,0-5.221-0.995-7.212-2.987c-3.983-3.983-3.983-10.441,0-14.425
		c45.997-45.996,57.151-115.848,27.755-173.816c-2.548-5.024-0.54-11.162,4.484-13.71c5.025-2.548,11.162-0.54,13.71,4.484
		c16.111,31.771,21.794,67.27,16.434,102.659c-5.47,36.118-22.054,68.903-47.958,94.808
		C374.447,378.431,371.837,379.427,369.227,379.427z"/>
	<path style="fill:#4D4D4D;" d="M375.054,159.107c-2.789,0-5.567-1.137-7.581-3.372c-1.76-1.954-3.597-3.888-5.459-5.749
		c-3.984-3.983-3.984-10.44-0.001-14.424c3.983-3.983,10.441-3.984,14.424-0.001c2.11,2.11,4.193,4.304,6.19,6.52
		c3.771,4.185,3.435,10.634-0.75,14.404C379.928,158.241,377.487,159.107,375.054,159.107z"/>
</g>
</svg>