<svg width="800" height="800" viewBox="0 0 800 800" fill="none" xmlns="http://www.w3.org/2000/svg">
<g clip-path="url(#clip0_101_2)">
<path d="M688.388 622.959V177.041H153.62V84.7797H784.064V715.22H153.62V622.959H688.388Z" fill="#847C7C"/>
<path d="M15.9359 400L159.037 256.898V343.03H534.62V456.97H159.037V543.102L15.9359 400Z" fill="#1FCFC1"/>
<path d="M153.62 731.156H784.064C792.866 731.156 800 724.022 800 715.22V84.7797C800 75.9781 792.866 68.8438 784.064 68.8438H153.62C144.82 68.8438 137.684 75.9781 137.684 84.7797V177.042C137.684 185.844 144.82 192.978 153.62 192.978H672.452V607.023H153.623C144.823 607.023 137.687 614.158 137.687 622.959V715.222C137.684 724.022 144.82 731.156 153.62 731.156ZM768.128 699.284H169.558V638.894H688.388C697.189 638.894 704.323 631.759 704.323 622.958V177.041C704.323 168.239 697.189 161.105 688.388 161.105H169.559V100.716H768.128V699.284Z" fill="#4D4D4D"/>
<path d="M159.041 559.039C161.094 559.039 163.166 558.642 165.136 557.825C171.089 555.358 174.973 549.548 174.973 543.102V472.906H534.62C543.422 472.906 550.556 465.772 550.556 456.97V343.03C550.556 334.228 543.422 327.094 534.62 327.094H174.973V256.9C174.973 250.455 171.089 244.644 165.136 242.177C159.183 239.711 152.327 241.073 147.769 245.631L4.66717 388.731C-1.55627 394.955 -1.55627 405.045 4.66717 411.27L147.769 554.37C150.817 557.419 154.892 559.039 159.041 559.039ZM518.684 441.034H159.037C150.237 441.034 143.102 448.169 143.102 456.97V504.628L38.475 400L143.102 295.372V343.03C143.102 351.831 150.237 358.966 159.037 358.966H518.684V441.034Z" fill="#4D4D4D"/>
<path d="M379.283 427.092H486.056C494.858 427.092 501.992 419.958 501.992 411.156C501.992 402.355 494.858 395.22 486.056 395.22H379.283C370.483 395.22 363.347 402.355 363.347 411.156C363.347 419.958 370.483 427.092 379.283 427.092Z" fill="#4D4D4D"/>
<path d="M318.725 427.092H326.694C335.494 427.092 342.63 419.958 342.63 411.156C342.63 402.355 335.494 395.22 326.694 395.22H318.725C309.925 395.22 302.789 402.355 302.789 411.156C302.789 419.958 309.925 427.092 318.725 427.092Z" fill="#4D4D4D"/>
</g>
<defs>
<clipPath id="clip0_101_2">
<rect width="800" height="800" fill="white" transform="matrix(-1 0 0 1 800 0)"/>
</clipPath>
</defs>
</svg>
