<svg width="0" height="0" class="hidden">
  <symbol xmlns="http://www.w3.org/2000/svg" viewBox="0 0 155 155" id="logo-git">
    <path d="M4.93931e-05 77.399C0.0478231 34.5009 34.7462 -0.0623902 77.7022 8.45612e-05C120.515 0.0625594 155.04 34.7545 154.996 77.6599C154.952 120.463 120.243 155.044 77.3714 155C34.5662 154.96 -0.0477243 120.242 4.93931e-05 77.399ZM60.2611 123.77C56.2848 123.77 52.5254 124.002 48.8027 123.719C42.8568 123.263 38.3623 120.503 36.2199 114.627C35.97 113.939 35.6797 113.26 35.3416 112.613C33.765 109.574 31.9864 106.692 28.9436 104.866C27.4516 103.973 27.0143 103.12 27.481 101.878C27.9587 100.607 29.0575 100.103 30.6487 100.533C34.6985 101.625 37.6751 104.113 39.9609 107.589C41.0597 109.261 42.2651 110.933 43.7204 112.289C47.7885 116.086 52.643 115.7 57.5931 114.568C59.482 114.138 60.6837 113.359 60.9667 111.172C61.3195 108.453 62.8078 106.152 64.5828 104.293C60.805 103.422 56.9868 102.837 53.3633 101.65C45.9731 99.2321 39.8727 95.0794 36.4404 87.7331C33.9084 82.3162 32.8757 76.5832 32.681 70.6664C32.4421 63.3936 34.2391 56.7493 39.0606 51.1412C39.7772 50.3107 39.8066 49.708 39.4611 48.7304C37.4804 43.1298 37.5539 37.5768 40.1814 32.1746C40.4056 31.7116 41.0708 31.2301 41.5742 31.1787C43.3492 31.0023 45.1572 30.8222 46.9212 30.9839C52.0771 31.458 56.7038 33.0787 59.6511 37.7459C60.1508 38.536 60.7058 38.3486 61.415 38.1722C72.256 35.4895 83.1116 35.3719 93.9563 38.106C95.1874 38.4147 96.1134 38.2677 97.1424 37.5658C100.917 34.997 104.977 32.9758 109.361 31.6822C110.791 31.2595 112.323 31.0868 113.815 31.0243C114.319 31.0023 115.142 31.5535 115.326 32.0313C117.49 37.6577 118.207 43.3723 116.164 49.2302C116.017 49.6565 116.189 50.3879 116.491 50.748C119.034 53.7762 120.959 57.1351 122.021 60.9534C123.631 66.7452 123.344 72.6032 122.308 78.4207C121.327 83.9442 119.471 89.1627 115.631 93.4293C111.772 97.7144 106.863 100.364 101.416 101.959C98.0648 102.94 94.5847 103.491 91.156 104.241C91.1633 104.26 91.1964 104.399 91.2809 104.484C94.1694 107.446 95.3601 111.113 95.4225 115.123C95.5512 123.527 95.5328 131.932 95.5769 140.337C95.5806 140.877 95.5769 141.417 95.5769 141.987C119.225 136.331 144.879 112.073 144.615 77.0609C144.335 39.7782 114.378 10.3452 77.309 10.3452C41.0487 10.3452 10.5323 39.5871 10.4147 77.3292C10.3045 112.525 36.3228 136.658 60.2611 142.2C60.2611 136.015 60.2611 129.83 60.2611 123.77Z"></path>
  </symbol>
  <symbol xmlns="http://www.w3.org/2000/svg" viewBox="0 0 553 220" id="logo-rs-school">
    <path d="M285.4 82.1998L311.7 80.4998C312.3 84.7998 313.4 87.9998 315.2 90.2998C318.1 93.8998 322.1 95.6998 327.4 95.6998C331.3 95.6998 334.4 94.7998 336.5 92.8998C338.5 91.3998 339.7 88.9998 339.7 86.4998C339.7 84.0998 338.6 81.7998 336.7 80.2998C334.7 78.4998 330 76.6998 322.6 75.0998C310.5 72.3998 301.8 68.7998 296.7 64.1998C291.6 59.8998 288.7 53.5998 288.9 46.8998C288.9 42.2998 290.3 37.6998 292.9 33.8998C295.9 29.5998 300 26.1998 304.9 24.2998C310.2 21.9998 317.6 20.7998 326.9 20.7998C338.3 20.7998 347 22.8998 353 27.1998C359 31.3998 362.6 38.1998 363.7 47.4998L337.7 48.9998C337 44.9998 335.6 42.0998 333.3 40.1998C331 38.2998 328 37.3998 324.1 37.3998C320.9 37.3998 318.5 38.0998 316.9 39.3998C315.4 40.5998 314.4 42.3998 314.5 44.3998C314.5 45.8998 315.3 47.2998 316.5 48.1998C317.8 49.3998 320.9 50.4998 325.8 51.4998C337.9 54.0998 346.5 56.6998 351.8 59.3998C357.1 62.0998 360.9 65.3998 363.2 69.2998C365.6 73.2998 366.8 77.8998 366.7 82.5998C366.7 88.1998 365.1 93.7998 361.9 98.4998C358.6 103.4 354 107.2 348.6 109.5C342.9 112 335.7 113.3 327.1 113.3C311.9 113.3 301.4 110.4 295.5 104.5C289.6 98.5998 286.1 91.1998 285.4 82.1998ZM6.3 111.8V22.3998H52.4C60.9 22.3998 67.5 23.0998 72 24.5998C76.4 25.9998 80.3 28.8998 82.9 32.7998C85.8 37.0998 87.2 42.0998 87.1 47.2998C87.4 56.0998 82.9 64.4998 75.2 68.8998C72.2 70.5998 68.9 71.7998 65.5 72.3998C68 73.0998 70.5 74.2998 72.7 75.6998C74.4 77.0998 75.8 78.6998 77.1 80.3998C78.6 82.0998 79.9 83.9998 81 85.9998L94.4 111.9H63L48.2 84.3998C46.3 80.8998 44.7 78.5998 43.2 77.4998C41.2 76.0998 38.8 75.3998 36.4 75.3998H34V111.7H6.3V111.8ZM34 58.5998H45.7C48.2 58.3998 50.6 57.9998 53 57.3998C54.8 57.0998 56.4 56.0998 57.5 54.5998C60.2 50.9998 59.8 45.8998 56.5 42.7998C54.7 41.2998 51.2 40.4998 46.2 40.4998H34V58.5998ZM0 188.4L26.3 186.7C26.9 191 28 194.2 29.8 196.5C32.6 200.1 36.7 202 42 202C45.9 202 49 201.1 51.1 199.2C53.1 197.6 54.3 195.3 54.3 192.8C54.3 190.4 53.2 188.1 51.3 186.6C49.3 184.8 44.6 183 37.1 181.4C25 178.7 16.3 175.1 11.2 170.5C6.1 166.2 3.2 159.9 3.4 153.2C3.4 148.6 4.8 144 7.4 140.2C10.4 135.9 14.5 132.5 19.4 130.6C24.7 128.3 32.1 127.1 41.4 127.1C52.8 127.1 61.5 129.2 67.5 133.5C73.5 137.8 77 144.5 78.1 153.8L52.1 155.3C51.4 151.3 50 148.4 47.7 146.5C45.5 144.6 42.4 143.7 38.5 143.8C35.3 143.8 32.9 144.5 31.3 145.9C29.7 147.1 28.8 148.9 28.9 150.9C28.9 152.4 29.7 153.8 30.9 154.7C32.2 155.9 35.3 157 40.2 158C52.3 160.6 60.9 163.2 66.2 165.9C71.5 168.6 75.3 171.9 77.6 175.8C80 179.8 81.2 184.4 81.2 189C81.2 194.6 79.5 200.1 76.4 204.8C73.1 209.7 68.5 213.5 63.1 215.8C57.4 218.3 50.2 219.6 41.6 219.6C26.4 219.6 15.9 216.7 10 210.8C4.1 204.8 0.8 197.4 0 188.4Z"></path>
    <path d="M133 181.4L157.2 188.7C155.9 194.8 153.2 200.6 149.5 205.7C146.1 210.2 141.6 213.7 136.5 216C131.3 218.3 124.7 219.5 116.7 219.5C107 219.5 99 218.1 92.9 215.3C86.7 212.5 81.4 207.5 76.9 200.4C72.4 193.3 70.2 184.2 70.2 173.1C70.2 158.3 74.1 146.9 82 139C89.9 131.1 101 127.1 115.4 127.1C126.7 127.1 135.5 129.4 142 133.9C148.4 138.5 153.2 145.5 156.4 154.9L132 160.3C131.4 158.2 130.5 156.1 129.3 154.3C127.8 152.2 125.9 150.6 123.6 149.4C121.3 148.2 118.7 147.7 116.1 147.7C109.8 147.7 105 150.2 101.7 155.3C99.2 159 97.9 164.9 97.9 172.9C97.9 182.8 99.4 189.6 102.4 193.3C105.4 197 109.6 198.8 115.1 198.8C120.4 198.8 124.4 197.3 127.1 194.4C129.8 191.3 131.8 187 133 181.4ZM189.5 128.6H217.1V159.9H247.3V128.6H275.1V218H247.3V181.8H217.1V218H189.5C189.5 218 189.5 128.6 189.5 128.6Z"></path>
    <path d="M482 153.539V192.959C483.98 187.249 485 180.489 485 172.599C485 165.459 484 159.109 482 153.539ZM351.9 138.999C343.8 130.999 332.4 126.999 317.5 126.999C303 126.999 291.6 131.099 283.5 139.199C279.91 142.789 277.11 147.019 275.1 151.889C272.57 158.019 271.3 165.159 271.3 173.299C271.3 181.499 272.58 188.599 275.1 194.639C275.8 196.349 276.6 197.959 277.5 199.499C281.2 205.999 286.8 211.299 293.6 214.699C300.2 217.899 308.5 219.499 318.6 219.499C328.5 219.499 336.8 217.599 343.5 213.899C350 210.299 355.3 204.899 358.7 198.299C362.2 191.599 364 183.099 364 172.599C364 158.199 360 146.999 351.9 138.999ZM331.4 192.999C328.1 196.899 323.5 198.799 317.6 198.799C311.8 198.799 307.2 196.799 303.9 192.899C300.6 188.899 298.9 182.399 298.9 173.399C298.9 164.299 300.6 157.799 304 153.899C307.4 149.999 312.3 147.799 317.4 147.999C323.2 147.999 327.8 149.899 331.2 153.799C334.6 157.599 336.3 163.799 336.3 172.199C336.3 182.199 334.7 189.099 331.4 192.999Z"></path>
    <path d="M472.9 138.999C464.9 130.999 453.4 126.999 438.5 126.999C424 126.999 412.6 131.099 404.5 139.199C396.4 147.299 392.3 158.699 392.3 173.299C392.3 183.799 394.4 192.499 398.5 199.499C402.2 205.999 407.8 211.299 414.6 214.699C421.2 217.899 429.5 219.499 439.6 219.499C449.5 219.499 457.8 217.599 464.5 213.899C471 210.299 476.3 204.899 479.7 198.299C480.57 196.629 481.34 194.859 482 192.959V153.539C479.97 147.879 476.93 143.029 472.9 138.999ZM452.4 192.999C449.1 196.899 444.5 198.799 438.6 198.799C432.8 198.799 428.2 196.799 424.9 192.899C421.6 188.899 419.9 182.399 419.9 173.399C419.9 164.299 421.6 157.799 425 153.899C428.3 149.999 433.3 147.799 438.4 147.999C444.2 147.999 448.8 149.899 452.2 153.799C455.6 157.599 457.3 163.799 457.3 172.199C457.3 182.199 455.7 189.099 452.4 192.999Z"></path>
    <path d="M552.8 196V218H482V128.6H509.7V196H552.8Z"></path>
    <path d="M451.659 123.449C479.446 102.51 488.014 67.0152 470.798 44.1686C453.581 21.322 417.099 19.7755 389.313 40.7145C361.526 61.6535 352.958 97.1488 370.174 119.995C387.391 142.842 423.873 144.388 451.659 123.449Z" fill="white"></path>
    <path fill-rule="evenodd" clip-rule="evenodd" d="M390.516 42.3118C363.305 62.8171 355.429 97.1055 371.771 118.792C388.114 140.478 423.245 142.358 450.456 121.852C477.667 101.347 485.543 67.0586 469.201 45.3722C452.859 23.6859 417.727 21.8064 390.516 42.3118ZM368.577 121.199C350.486 97.1921 359.747 60.49 388.109 39.1174C416.471 17.7447 454.304 18.9581 472.395 42.965C490.486 66.972 481.225 103.674 452.863 125.047C424.501 146.419 386.668 145.206 368.577 121.199Z"></path>
    <path d="M392.4 75.5002L402.4 68.5002L414.7 86.0002C416.8 88.8002 418.4 91.8002 419.6 95.1002C420.3 97.6002 420.1 100.3 419.1 102.7C417.8 105.7 415.7 108.2 412.9 110C409.6 112.3 406.8 113.6 404.4 114C402.1 114.4 399.7 114 397.5 113C395.1 111.8 393 110.1 391.4 107.9L400 99.9002C400.7 101 401.6 102 402.6 102.8C403.3 103.3 404.1 103.6 405 103.6C405.7 103.6 406.4 103.3 406.9 102.9C407.9 102.3 408.6 101.1 408.5 99.9002C408.2 98.2002 407.5 96.5002 406.4 95.2002L392.4 75.5002ZM422.4 86.6002L431.5 79.4002C432.5 80.6002 433.8 81.5002 435.2 82.0002C437.2 82.6002 439.3 82.2002 441 80.9002C442.2 80.1002 443.2 79.0002 443.6 77.6002C444.2 75.8002 443.2 73.8002 441.4 73.2002C441.1 73.1002 440.8 73.0002 440.5 73.0002C439.3 72.9002 437.2 73.4002 434.1 74.7002C429 76.8002 425 77.6002 422 77.3002C419.1 77.0002 416.4 75.5002 414.8 73.0002C413.6 71.3002 413 69.3002 412.9 67.3002C412.9 65.0002 413.5 62.7002 414.8 60.8002C416.7 58.1002 419 55.8002 421.8 54.0002C426 51.1002 429.7 49.7002 432.9 49.7002C436.1 49.7002 439.1 51.2002 441.9 54.3002L432.9 61.4002C431.1 59.1002 427.7 58.6002 425.4 60.4002L425.1 60.7002C424.1 61.3002 423.4 62.2002 423 63.3002C422.7 64.1002 422.9 65.0002 423.4 65.7002C423.8 66.2002 424.4 66.6002 425.1 66.6002C425.9 66.7002 427.3 66.3002 429.3 65.4002C434.3 63.3002 438.1 62.1002 440.7 61.7002C442.9 61.3002 445.2 61.5002 447.3 62.4002C449.2 63.2002 450.8 64.6002 451.9 66.3002C453.3 68.3002 454.1 70.7002 454.2 73.2002C454.3 75.8002 453.6 78.3002 452.2 80.5002C450.4 83.2002 448.1 85.5002 445.4 87.3002C439.9 91.1002 435.4 92.7002 431.8 92.1002C427.9 91.5002 424.7 89.5002 422.4 86.6002Z"></path>
  </symbol>
</svg>